<?xml version="1.0" encoding="UTF-8"?>
<svg version="1.1" xmlns="http://www.w3.org/2000/svg" width="50" height="50">
<path d="M0 0 C5.28 0 10.56 0 16 0 C16.66 1.65 17.32 3.3 18 5 C18.99 5.33 19.98 5.66 21 6 C21 7.32 21 8.64 21 10 C20.34 10 19.68 10 19 10 C19 10.66 19 11.32 19 12 C20.98 12 22.96 12 25 12 C25 19.26 25 26.52 25 34 C20.71 34 16.42 34 12 34 C12 34.66 12 35.32 12 36 C13.65 36 15.3 36 17 36 C17 37.32 17 38.64 17 40 C11.06 40 5.12 40 -1 40 C-1 38.68 -1 37.36 -1 36 C0.65 36 2.3 36 4 36 C4 35.34 4 34.68 4 34 C-0.29 34 -4.58 34 -9 34 C-9 26.74 -9 19.48 -9 12 C-7.02 12 -5.04 12 -3 12 C-3 11.34 -3 10.68 -3 10 C-3.66 10 -4.32 10 -5 10 C-5 8.68 -5 7.36 -5 6 C-4.01 5.67 -3.02 5.34 -2 5 C-1.34 3.35 -0.68 1.7 0 0 Z " fill="#6B18FE" transform="translate(17,6)"/>
<path d="M0 0 C5.28 0 10.56 0 16 0 C16.66 1.65 17.32 3.3 18 5 C18.99 5.33 19.98 5.66 21 6 C21 7.32 21 8.64 21 10 C20.34 10 19.68 10 19 10 C18.67 10.99 18.34 11.98 18 13 C11.4 13 4.8 13 -2 13 C-2.33 12.01 -2.66 11.02 -3 10 C-3.66 10 -4.32 10 -5 10 C-5 8.68 -5 7.36 -5 6 C-4.01 5.67 -3.02 5.34 -2 5 C-1.34 3.35 -0.68 1.7 0 0 Z " fill="#6921FE" transform="translate(17,6)"/>
<path d="M0 0 C1.98 0 3.96 0 6 0 C6 3.63 6 7.26 6 11 C4.02 11 2.04 11 0 11 C0 7.37 0 3.74 0 0 Z " fill="#2501C7" transform="translate(22,29)"/>
<path d="M0 0 C7.26 0 14.52 0 22 0 C21.67 0.99 21.34 1.98 21 3 C14.4 3 7.8 3 1 3 C0.67 2.01 0.34 1.02 0 0 Z " fill="#40C9EC" transform="translate(14,16)"/>
</svg>
